<mxfile host="app.diagrams.net" modified="2024-01-01T17:21:38.244Z" agent="Mozilla/5.0 (Windows NT 10.0; Win64; x64; rv:121.0) Gecko/20100101 Firefox/121.0" version="22.1.16" etag="nvahD1ggUDa8xz8k5_KC" type="github">
  <diagram name="Seite-1" id="99x4FHej5FIweNPe3z4g">
    <mxGraphModel>
      <root>
        <mxCell id="0" />
        <mxCell id="1" parent="0" />
      </root>
    </mxGraphModel>
  </diagram>
</mxfile>
